<svg viewBox="0 0 100 100" xmlns="http://www.w3.org/2000/svg" role="img" aria-label="Life Science Atlas">
  <defs>
    <linearGradient id="bg" x1="0" y1="0" x2="1" y2="1">
      <stop offset="0" stop-color="#11283a" />
      <stop offset="1" stop-color="#0B1120" />
    </linearGradient>
  </defs>
  <rect x="0" y="0" width="100" height="100" rx="22" fill="url(#bg)" />
  <g transform="translate(8,8) scale(0.84)">
    <g fill="none" stroke="#14B8A6" stroke-opacity="0.5" stroke-width="3.4" stroke-linecap="round">
      <line x1="50" y1="16" x2="20" y2="47" />
      <line x1="50" y1="16" x2="80" y2="47" />
      <line x1="50" y1="16" x2="50" y2="53" />
      <line x1="20" y1="47" x2="50" y2="53" />
      <line x1="80" y1="47" x2="50" y2="53" />
      <line x1="50" y1="53" x2="33" y2="85" />
      <line x1="50" y1="53" x2="67" y2="85" />
      <line x1="33" y1="85" x2="67" y2="85" />
      <line x1="20" y1="47" x2="33" y2="85" />
      <line x1="80" y1="47" x2="67" y2="85" />
    </g>
    <circle cx="20" cy="47" r="6.6" fill="#14B8A6" />
    <circle cx="80" cy="47" r="6.6" fill="#14B8A6" />
    <circle cx="33" cy="85" r="6.6" fill="#14B8A6" />
    <circle cx="67" cy="85" r="6.6" fill="#14B8A6" />
    <circle cx="50" cy="53" r="6.2" fill="#5EEAD4" />
    <circle cx="50" cy="16" r="7.8" fill="#EBBF6B" />
  </g>
</svg>
