<svg xmlns="http://www.w3.org/2000/svg" width="1200" height="630" viewBox="0 0 1200 630" role="img" aria-label="Life Science Atlas">
  <defs>
    <linearGradient id="bg" x1="0" y1="0" x2="1" y2="1">
      <stop offset="0" stop-color="#0b1220"/>
      <stop offset="1" stop-color="#0f2420"/>
    </linearGradient>
    <linearGradient id="accent" x1="0" y1="0" x2="1" y2="0">
      <stop offset="0" stop-color="#2dd4bf"/>
      <stop offset="1" stop-color="#34d399"/>
    </linearGradient>
  </defs>
  <rect width="1200" height="630" fill="url(#bg)"/>
  <rect width="1200" height="8" fill="url(#accent)"/>
  <g transform="translate(90, 140)">
    <!-- flask mark -->
    <g transform="translate(0,4)">
      <rect x="0" y="0" width="64" height="64" rx="16" fill="#10b981" opacity="0.15"/>
      <path d="M26 14 v16 l-14 24 a6 6 0 0 0 5 9 h30 a6 6 0 0 0 5 -9 l-14 -24 v-16 z" fill="none" stroke="#34d399" stroke-width="3.5" stroke-linejoin="round" transform="translate(0,0)"/>
      <line x1="22" y1="14" x2="42" y2="14" stroke="#34d399" stroke-width="3.5" stroke-linecap="round"/>
    </g>
    <text x="84" y="48" font-family="'Space Grotesk', 'Segoe UI', sans-serif" font-size="44" font-weight="700" fill="#f8fafc">Life Science <tspan fill="#34d399">Atlas</tspan></text>
  </g>
  <text x="90" y="330" font-family="'Space Grotesk', 'Segoe UI', sans-serif" font-size="68" font-weight="700" fill="#f8fafc">Practical workflows for</text>
  <text x="90" y="410" font-family="'Space Grotesk', 'Segoe UI', sans-serif" font-size="68" font-weight="700" fill="#34d399">QC/QA &amp; Life Science</text>
  <text x="90" y="486" font-family="'Inter', 'Segoe UI', sans-serif" font-size="30" fill="#94a3b8">Workflows · checklists · toolkits · structured learning</text>
  <text x="90" y="566" font-family="'Inter', 'Segoe UI', sans-serif" font-size="24" fill="#64748b">Life Science Atlas</text>
</svg>
